<?xml version="1.0" standalone="no"?>
<!DOCTYPE svg PUBLIC "-//W3C//DTD SVG 20010904//EN"
 "http://www.w3.org/TR/2001/REC-SVG-20010904/DTD/svg10.dtd">
<svg version="1.0" xmlns="http://www.w3.org/2000/svg"
 width="455.000000pt" height="455.000000pt" viewBox="0 0 455.000000 455.000000"
 preserveAspectRatio="xMidYMid meet">
<metadata>
Created by potrace 1.14, written by Peter Selinger 2001-2017
</metadata>
<g transform="translate(0.000000,455.000000) scale(0.100000,-0.100000)"
fill="#000000" stroke="none">
<path d="M2357 4544 c-1 -1 -51 -4 -112 -8 -113 -6 -144 -10 -230 -27 -27 -5
-59 -11 -70 -13 -93 -18 -178 -38 -220 -51 -27 -9 -60 -18 -73 -21 -35 -7
-434 -153 -446 -163 -6 -5 -56 -32 -111 -60 -55 -28 -111 -61 -125 -71 -14
-11 -61 -47 -105 -79 -155 -113 -364 -341 -512 -559 -32 -47 -164 -320 -206
-427 -43 -108 -95 -317 -111 -440 -15 -116 -19 -183 -18 -312 1 -152 9 -254
21 -263 4 -3 8 -25 10 -50 2 -25 4 -47 6 -50 3 -5 34 -171 40 -215 8 -55 39
-156 79 -253 56 -137 124 -279 136 -287 6 -4 24 -32 41 -63 61 -115 136 -229
179 -273 14 -14 36 -46 50 -69 25 -44 247 -271 350 -358 30 -26 74 -66 98 -90
75 -75 373 -229 462 -238 30 -3 58 -10 61 -15 3 -6 19 -12 35 -14 36 -6 153
-32 214 -48 31 -8 172 -12 448 -12 347 0 404 2 412 15 5 8 10 10 10 5 0 -7 15
-9 35 -7 19 2 33 7 31 11 -2 3 15 7 38 7 64 2 289 74 386 124 22 11 61 34 87
50 26 17 72 39 102 51 30 11 77 38 104 59 27 22 54 40 58 40 5 0 41 29 80 65
39 36 95 81 125 101 30 20 81 64 113 97 32 32 63 63 67 68 101 96 130 131 210
251 36 54 75 109 87 122 37 40 132 233 185 376 81 220 114 351 126 510 3 41 9
107 14 145 10 100 7 313 -6 371 -6 27 -14 78 -17 114 -3 36 -7 80 -10 98 -13
98 -164 547 -203 604 -16 24 -35 61 -43 82 -8 22 -30 56 -49 75 -20 20 -40 47
-46 61 -31 74 -68 141 -104 184 -22 26 -40 53 -40 58 0 6 -40 50 -90 99 -49
49 -90 93 -90 98 0 5 -11 12 -24 15 -14 3 -46 26 -73 50 -84 76 -108 93 -123
89 -12 -4 -12 -2 -2 5 40 28 -402 283 -513 296 -64 7 -155 34 -155 46 0 24
-238 75 -400 86 -58 3 -120 7 -138 8 -18 1 -33 2 -35 0z m-1702 -3274 c3 -6
-1 -7 -9 -4 -18 7 -21 14 -7 14 6 0 13 -4 16 -10z"/>
</g>
</svg>
